# xmcd
#
# Track frame offsets:
#   150
#   14529
#   31927
#   45793
#   64017
#   82892
#   101167
#   122153
#   137876
#   157361
#   172457
#   191174
#   210131
#   232235
#   252639
#   276517
#
# Disc length: 3898 seconds
#
# Revision: 0
# Processed by: cddbd v1.5.2PL0 Copyright (c) Steve Scherf et al.
# Submitted via: uFREEDB ActiveX Control 1.5
#
DISCID=f10f3810
DTITLE=West Rocky - Arrepia
DYEAR=2002
DGENRE=Country
TTITLE0=Diz prá onde eu vou
TTITLE1=Arrepia
TTITLE2=Por dentro, por fora
TTITLE3=A saudade
TTITLE4=Acho que errei
TTITLE5=Depois de tudo
TTITLE6=Solamente tu amor
TTITLE7=Eu nunca te amei (Idiota)
TTITLE8=Novo amor
TTITLE9=Mais uma vez
TTITLE10=Há um lugar
TTITLE11=Susie
TTITLE12=OK
TTITLE13=Te mostro depois
TTITLE14=Ela
TTITLE15=Mundo virado
EXTD=
EXTT0=
EXTT1=
EXTT2=
EXTT3=
EXTT4=
EXTT5=
EXTT6=
EXTT7=
EXTT8=
EXTT9=
EXTT10=
EXTT11=
EXTT12=
EXTT13=
EXTT14=
EXTT15=
PLAYORDER=
